# xmcd
#
# Track frame offsets: 
#        150
#        20181
#        58633
#        90395
#        155499
#        246078
#        270447
#
# Disc length: 4089 seconds
#
# Revision: 0
# Processed by: cddbd v1.5.2PL0 Copyright (c) Steve Scherf et al.
# Submitted via: ExactAudioCopy v0.95b3
#
DISCID=530ff707
DTITLE=Jimi Hendrix  - Studio Sessions Vol.2 (Voodoo Chile Records  Bo
DTITLE=x-Set) - Disc 4
DYEAR=1900
DGENRE=
TTITLE0=Crash Landing
TTITLE1=Drone Blues
TTITLE2=Things I Used To Do
TTITLE3=Young\\Hendrix Jam
TTITLE4=Fuzzy Guitar Jam Js18
TTITLE5=Jam 292
TTITLE6=Hear My Train A Comin'
EXTD=
EXTT0=
EXTT1=
EXTT2=
EXTT3=
EXTT4=
EXTT5=
EXTT6=
PLAYORDER=
